# xmcd CD database file
#
# Track frame offsets:
#	150
#	12853
#	30515
#	48358
#	65178
#	74165
#	87215
#	105670
#	114833
#	126290
#	140013
#	156030
#	173973
#
# Disc length: 2507 seconds
#
# Revision: 3
# Processed by: cddbd v1.5.2PL0 Copyright (c) Steve Scherf et al.
# Submitted via: CDex 1.77
#
DISCID=b409c90d
DTITLE=Fafa De Belem - Meu fado
DYEAR=1992
DGENRE=Fado
TTITLE0=Cancao Grata
TTITLE1=Canoa Do Tejo
TTITLE2=Nem As Paredes Confesso
TTITLE3=Sombras Da Madrugada
TTITLE4=So A Noitinha
TTITLE5=Procuro E Nao Te Encontro
TTITLE6=Confesso
TTITLE7=Fado Das Queixas
TTITLE8=Olhos Castanhos
TTITLE9=So Nos Dois
TTITLE10=Sempre Que Lisboa Canta
TTITLE11=Memorias
TTITLE12=Tudo Isto E Fado
EXTD=YEAR: 1992
EXTT0=
EXTT1=
EXTT2=
EXTT3=
EXTT4=
EXTT5=
EXTT6=
EXTT7=
EXTT8=
EXTT9=
EXTT10=
EXTT11=
EXTT12=
PLAYORDER=
